<svg width="54" height="36" xmlns="http://www.w3.org/2000/svg">

 <g>
  <title>background</title>
  <rect fill="none" id="canvas_background" height="602" width="802" y="-1" x="-1"/>
 </g>
 <g>
  <title>Layer 1</title>
  <path stroke="#00ff00" id="svg_1" d="m11.95313,10.1875q0,-0.73437 0.03906,-1.45312t0.13281,-1.42188q0.0625,-0.35937 0.55469,-0.51562t0.82031,-0.15625l0.375,0.03125q0.45313,0.0625 0.91406,-0.0625t0.91407,-0.125q1.0625,0 2.375,0.23437t2.46093,0.79688t1.92969,1.47656t0.78125,2.25781t-0.8125,2.50781t-2.04687,2.04688t-2.65625,1.38281t-2.60938,0.5q0.125,3.01563 0.35156,5.98438t0.77344,5.9375l0.03125,0.20312q0,0.21875 -0.19531,0.35938t-0.46094,0.22656t-0.53906,0.11719t-0.44531,0.03125q-0.39063,0 -0.94532,-0.14844t-0.67968,-0.58594q-0.35938,-1.375 -0.5625,-3.02344t-0.29688,-3.44531t-0.13281,-3.61719t-0.03906,-3.55468l0,-3.51563q0,-0.57812 -0.01563,-1.20312t-0.01562,-1.26563zm2.95312,-2.53125q0,2.14063 0.04688,4.27344t0.10937,4.27344q0.92188,-0.1875 1.88281,-0.66407t1.73438,-1.13281t1.25,-1.49219t0.47656,-1.75781q0,-0.82812 -0.41406,-1.48437t-1.07031,-1.125q-0.64063,-0.45313 -1.45313,-0.70313q-0.71875,-0.21875 -1.40625,-0.21875l-0.17187,0l-0.98438,0.03125zm11.57297,19.8125q-0.01563,-0.46875 -0.01563,-0.9375q0,-1.46875 0.15625,-2.95312q0.1875,-1.96875 0.25,-3.875q0.0625,-2.23438 0.1875,-4.64063q0.07813,-1.3125 0.07813,-2.59375q0,-1.04687 -0.04688,-2.07812q0.15625,-0.35938 0.41407,-0.48438t0.64843,-0.125q0.1875,0 0.39844,0.03125t0.36719,0.15625q0.21875,0.03125 0.53906,0.0625t0.49219,0.1875q0.0625,0.09375 0.32031,0.64063t0.60938,1.32812t0.73437,1.69531t0.73438,1.73438t0.60937,1.44531t0.32031,0.78125q1.46875,-2.65625 2.875,-5.46094t3.07813,-5.28906q0.15625,-0.21875 0.53906,-0.32031t0.63281,-0.10156q0.67188,0 0.97657,0.32031t0.39843,0.82031q0.0625,0.3125 0.07813,0.67188q0.01562,0.1875 -0.01563,0.39062q-0.0625,0.57813 -0.0625,1.09375q0,3.64063 -0.25,7.22656t-0.45312,7.24219q-0.03125,0.75 -0.03125,1.5625t0.03125,1.6875q0.01562,0.3125 0.01562,0.60938q0,1.375 -0.23437,2.5625q-0.21875,0.35937 -0.71875,0.45312t-0.84375,0.09375q-0.73438,0 -1.40625,-0.34375l-0.17188,-0.20312l-0.0625,-0.25t-0.03125,-0.25q0,-2.26563 0.16407,-4.5625t0.36718,-4.58594t0.42969,-4.57031t0.38281,-4.5625q-0.92187,1.53125 -1.78906,3.11718t-1.63281,3.22657q-0.28125,0.64062 -0.53906,1.375t-0.61719,1.3125q-0.1875,0.28125 -0.63281,0.34375t-0.77344,0.0625q-0.3125,0 -0.64844,-0.10938t-0.46094,-0.46875q-0.57812,-1.76562 -1.23437,-3.45312t-1.32813,-3.42188q0,1.15625 0.04688,2.99219t0.04687,3.80469t-0.0625,3.76562t-0.29687,2.84375q-0.0625,0.39063 -0.50781,0.48438t-0.77344,0.09375q-0.25,0 -0.47656,-0.03125t-0.44532,-0.125l-0.35937,-0.42188z" fill="#"/>
  <path stroke="#00ff00" id="svg_2" fill="#"/>
 </g>
</svg>